<svg width="79" height="50" viewBox="0 0 79 50" fill="none" xmlns="http://www.w3.org/2000/svg">
<g clip-path="url(#clip0_25_370)">
<path d="M15.4739 16.1824H1.19031V18.6811H15.4739V16.1824Z" fill="#3F3F46" stroke="#3F3F46" stroke-width="1.1903"/>
<path d="M77.3697 16.1824H63.0861V18.6811H77.3697V16.1824Z" fill="#3F3F46" stroke="#3F3F46" stroke-width="1.1903"/>
<mask id="path-3-inside-1_25_370" fill="white">
<path d="M39.3822 28.5412V29.5543H35.6268C35.6268 29.5543 35.6272 28.5412 36.5657 28.5412H39.3822Z"/>
</mask>
<path d="M39.3822 28.5412V29.5543H35.6268C35.6268 29.5543 35.6272 28.5412 36.5657 28.5412H39.3822Z" fill="#393939"/>
<path d="M39.3822 28.5412H40.5725V27.3509H39.3822V28.5412ZM39.3822 29.5543V30.7446H40.5725V29.5543H39.3822ZM35.6268 29.5543L34.4365 29.5538L34.4361 30.7446H35.6268V29.5543ZM38.1919 28.5412V29.5543H40.5725V28.5412H38.1919ZM39.3822 28.364H35.6268V30.7446H39.3822V28.364ZM35.6268 29.5543C36.8171 29.5547 36.8171 29.5552 36.8171 29.5558C36.8171 29.5559 36.8171 29.5565 36.8171 29.5568C36.8171 29.5575 36.8171 29.5582 36.8171 29.5588C36.8171 29.5602 36.8171 29.5615 36.8171 29.5627C36.8171 29.5652 36.8171 29.5675 36.817 29.5696C36.817 29.5738 36.8169 29.5772 36.8168 29.58C36.8166 29.5856 36.8164 29.5887 36.8164 29.5897C36.8162 29.5914 36.8165 29.5866 36.8179 29.578C36.8214 29.5549 36.8263 29.5439 36.8242 29.5484C36.821 29.5553 36.7935 29.6116 36.7182 29.6657C36.6309 29.7286 36.559 29.7315 36.5657 29.7315V27.3509C36.1032 27.3509 35.6793 27.4805 35.328 27.7332C34.9887 27.9773 34.7851 28.2869 34.6644 28.5471C34.5449 28.8049 34.4911 29.0471 34.4653 29.2139C34.4519 29.3003 34.4448 29.3747 34.441 29.4317C34.4391 29.4604 34.438 29.4853 34.4373 29.5057C34.437 29.516 34.4368 29.5251 34.4367 29.5332C34.4366 29.5372 34.4366 29.5409 34.4366 29.5444C34.4366 29.5461 34.4365 29.5477 34.4365 29.5493C34.4365 29.5501 34.4365 29.5509 34.4365 29.5516C34.4365 29.552 34.4365 29.5526 34.4365 29.5528C34.4365 29.5533 34.4365 29.5538 35.6268 29.5543ZM36.5657 29.7315H39.3822V27.3509H36.5657V29.7315Z" fill="#3F3F46" mask="url(#path-3-inside-1_25_370)"/>
<path d="M35.6269 29.5543C35.6269 29.5543 34.6878 29.5543 32.8104 29.5543C30.933 29.5543 30.9328 27.5283 30.9328 27.5283L30.5906 23.8367M35.6269 29.5543H39.3823V28.5412C39.3823 28.5412 37.5048 28.5412 36.5658 28.5412C35.6272 28.5412 35.6269 29.5543 35.6269 29.5543ZM30.5906 23.8367L29.3778 10.7496M30.5906 23.8367H39.3823M29.0551 7.26829C29.0551 7.26829 28.1158 7.26829 27.1774 7.26829C26.3576 7.26829 25.2998 6.2553 26.2386 5.2423C27.1774 4.22931 29.0551 4.22931 29.0551 4.22931H30.5906M29.0551 7.26829H39.3823M29.0551 7.26829L29.3778 10.7496M30.5906 4.22931H39.3823M30.5906 4.22931L31.8716 1.19031H39.3823M29.3778 10.7496H39.3823" stroke="#3F3F46" stroke-width="2.38061"/>
<path d="M36.8707 20.4364C36.1544 19.6846 35.9584 18.0155 35.9158 17.5314C35.9079 17.4418 35.9079 17.3531 35.9158 17.2634C35.9584 16.7793 36.1544 15.1103 36.8707 14.3584C37.5769 13.6172 39.1327 13.4069 39.6183 13.3582C39.7169 13.3483 39.815 13.3483 39.9137 13.3582C40.3992 13.4069 41.9551 13.6172 42.6614 14.3584C43.5041 15.243 43.6265 16.1465 43.6265 17.3975C43.6265 18.6485 43.5041 19.5518 42.6614 20.4364C41.9551 21.1778 40.3992 21.388 39.9137 21.4366C39.815 21.4465 39.7169 21.4465 39.6183 21.4366C39.1327 21.388 37.5769 21.1778 36.8707 20.4364Z" stroke="#3F3F46" stroke-width="1.1903"/>
<mask id="path-7-inside-2_25_370" fill="white">
<path d="M38.7971 28.5412V29.5543H42.5524C42.5524 29.5543 42.5522 28.5412 41.6136 28.5412H38.7971Z"/>
</mask>
<path d="M38.7971 28.5412V29.5543H42.5524C42.5524 29.5543 42.5522 28.5412 41.6136 28.5412H38.7971Z" fill="#393939"/>
<path d="M38.7971 28.5412V27.3509H37.6068V28.5412H38.7971ZM38.7971 29.5543H37.6068V30.7446H38.7971V29.5543ZM42.5524 29.5543V30.7446H43.743L43.7427 29.554L42.5524 29.5543ZM37.6068 28.5412V29.5543H39.9874V28.5412H37.6068ZM38.7971 30.7446H42.5524V28.364H38.7971V30.7446ZM42.5524 29.5543C43.7427 29.554 43.7427 29.5534 43.7427 29.5529C43.7427 29.5527 43.7427 29.5522 43.7427 29.5518C43.7427 29.551 43.7427 29.5503 43.7427 29.5495C43.7427 29.5479 43.7427 29.5462 43.7427 29.5445C43.7426 29.5411 43.7426 29.5373 43.7425 29.5333C43.7424 29.5253 43.7422 29.5161 43.7419 29.5059C43.7413 29.4854 43.7402 29.4606 43.7382 29.4319C43.7345 29.3748 43.7274 29.3005 43.714 29.2141C43.6882 29.0472 43.6344 28.805 43.5149 28.5472C43.3943 28.287 43.1907 27.9774 42.8514 27.7333C42.5 27.4805 42.0761 27.3509 41.6136 27.3509V29.7315C41.6204 29.7315 41.5485 29.7286 41.4611 29.6657C41.3858 29.6115 41.3582 29.5552 41.355 29.5482C41.3529 29.5437 41.3578 29.5548 41.3614 29.5779C41.3627 29.5865 41.363 29.5912 41.3629 29.5896C41.3628 29.5886 41.3626 29.5855 41.3624 29.5799C41.3624 29.5771 41.3623 29.5736 41.3622 29.5694C41.3622 29.5673 41.3622 29.565 41.3621 29.5626C41.3621 29.5613 41.3621 29.56 41.3621 29.5587C41.3621 29.558 41.3621 29.5574 41.3621 29.5567C41.3621 29.5563 41.3621 29.5558 41.3621 29.5556C41.3621 29.5551 41.3621 29.5545 42.5524 29.5543ZM41.6136 27.3509H38.7971V29.7315H41.6136V27.3509Z" fill="#3F3F46" mask="url(#path-7-inside-2_25_370)"/>
<path d="M42.5524 29.5543C42.5524 29.5543 43.4916 29.5543 45.3689 29.5543C47.2464 29.5543 47.2466 27.5283 47.2466 27.5283L47.5887 23.8367M42.5524 29.5543H38.7971V28.5412C38.7971 28.5412 40.6745 28.5412 41.6136 28.5412C42.5522 28.5412 42.5524 29.5543 42.5524 29.5543ZM47.5887 23.8367L48.8016 10.7496M47.5887 23.8367H38.7971M49.1243 7.26829C49.1243 7.26829 50.0636 7.26829 51.0019 7.26829C51.8218 7.26829 52.8796 6.2553 51.9408 5.2423C51.0019 4.22931 49.1243 4.22931 49.1243 4.22931H47.5887M49.1243 7.26829H38.7971M49.1243 7.26829L48.8016 10.7496M47.5887 4.22931H38.7971M47.5887 4.22931L46.3078 1.19031H38.7971M48.8016 10.7496H38.7971" stroke="#3F3F46" stroke-width="2.38061"/>
<path d="M18.0975 34.21C18.078 34.2305 18.0597 34.2352 18.0458 34.2352C18.032 34.2352 18.0137 34.2305 17.9942 34.21C17.9733 34.1881 17.9586 34.1549 17.9586 34.1141C17.9586 34.0733 17.9733 34.0401 17.9942 34.0182C18.0137 33.9977 18.032 33.993 18.0458 33.993C18.0597 33.993 18.078 33.9977 18.0975 34.0182C18.1184 34.0401 18.1331 34.0733 18.1331 34.1141C18.1331 34.1549 18.1184 34.1881 18.0975 34.21Z" fill="#393939" stroke="#3F3F46" stroke-width="1.1903"/>
<path d="M16.598 37.6595H18.5282V46.7765L16.598 48.8025H14.6678M28.1796 38.6725H27.2144L25.2842 37.6595C25.2842 37.6595 24.0282 37.3056 23.354 37.6595C22.8771 37.9097 22.5573 38.1417 22.3887 38.6725C22.2696 39.0478 22.2696 39.3102 22.3887 39.6855C22.5573 40.2163 22.8771 40.4483 23.354 40.6985C24.0282 41.0524 24.5303 40.6985 25.2842 40.6985C26.2493 40.6985 27.0053 41.6273 27.2144 42.7245C27.2883 43.1124 27.3336 43.3622 27.2144 43.7375C26.9478 44.5767 26.1069 44.5586 25.2842 44.7505C24.5483 44.9222 24.0282 45.1043 23.354 44.7505C22.8771 44.5003 22.3887 43.7375 22.3887 43.7375H21.4237M17.5633 34.6206C17.8298 34.9003 18.2618 34.9003 18.5284 34.6206C18.7949 34.3408 18.7949 33.8873 18.5284 33.6076C18.2618 33.3279 17.8298 33.3279 17.5633 33.6076C17.2967 33.8873 17.2967 34.3408 17.5633 34.6206Z" stroke="#3F3F46" stroke-width="1.1903"/>
<path d="M39.7598 33.6058H40.7249L40.7246 39.6839M40.7246 39.6839L38.7947 37.6579C38.7947 37.6579 37.5795 37.4077 36.8645 37.6579C35.8531 38.0117 35.3542 38.6555 34.9342 39.6839C34.4888 40.7747 34.4888 41.632 34.9342 42.7228C35.3542 43.7513 35.911 44.2485 36.8645 44.7489C38.2129 45.4565 40.7246 44.7489 40.7246 44.7489M40.7246 39.6839V44.7489M40.7246 44.7489H42.6548M45.5502 40.6968C45.5502 40.6968 49.4107 40.6968 51.3409 40.6968C51.7178 40.6968 51.4601 40.0592 51.3409 39.6839C51.1723 39.1531 50.3758 38.6708 50.3758 38.6708C50.3758 38.6708 49.2883 37.6579 48.4456 37.6579C47.6027 37.6579 47.1805 38.1278 46.5153 38.6708C46.0945 39.0143 45.8244 39.2041 45.5502 39.6839C44.9685 40.7016 44.9685 41.7051 45.5502 42.7228C45.8244 43.2025 46.0945 43.3924 46.5153 43.7359C47.1805 44.2789 47.6228 44.557 48.4456 44.7489C49.1814 44.9205 49.6399 44.9205 50.3758 44.7489C51.1985 44.557 52.3061 43.7359 52.3061 43.7359M54.2363 37.6579H56.1665L58.0968 44.7489H59.0619L60.9921 37.6579H62.9224" stroke="#3F3F46" stroke-width="1.1903"/>
</g>
<defs>
<clipPath id="clip0_25_370">
<rect width="78.56" height="49.9927" fill="white"/>
</clipPath>
</defs>
</svg>
